<svg width="20" height="20" viewBox="0 0 20 20" fill="none" xmlns="http://www.w3.org/2000/svg">
<path d="M16.875 17.4999C16.7929 17.5 16.7116 17.4839 16.6358 17.4525C16.56 17.421 16.4911 17.3749 16.4332 17.3167L2.6832 3.56671C2.57094 3.44855 2.50928 3.29121 2.51137 3.12823C2.51345 2.96525 2.57912 2.80954 2.69437 2.69429C2.80962 2.57904 2.96534 2.51337 3.12831 2.51128C3.29129 2.5092 3.44863 2.57086 3.5668 2.68312L17.3168 16.4331C17.4041 16.5205 17.4636 16.6319 17.4877 16.7531C17.5118 16.8743 17.4994 16.9999 17.4522 17.1141C17.4049 17.2282 17.3248 17.3258 17.2221 17.3945C17.1194 17.4632 16.9986 17.4999 16.875 17.4999ZM9.98672 14.9999C8.36602 14.9999 6.80313 14.5202 5.34141 13.5741C4.01055 12.7148 2.8125 11.4839 1.87656 10.0194V10.0163C2.65547 8.90031 3.50859 7.95656 4.425 7.19562C4.43329 7.18869 4.44005 7.18011 4.44486 7.17044C4.44967 7.16076 4.45241 7.15019 4.45293 7.1394C4.45344 7.1286 4.45171 7.11782 4.44785 7.10773C4.44398 7.09764 4.43806 7.08846 4.43047 7.08078L3.65234 6.30382C3.63852 6.28988 3.61995 6.28166 3.60033 6.28079C3.58071 6.27992 3.56149 6.28647 3.54649 6.29913C2.57305 7.11945 1.66953 8.1257 0.848048 9.30382C0.706714 9.50668 0.628875 9.74697 0.624424 9.99416C0.619973 10.2414 0.689109 10.4843 0.823048 10.6921C1.85469 12.3066 3.18242 13.6663 4.66211 14.6237C6.32813 15.703 8.12109 16.2499 9.98672 16.2499C10.9937 16.2468 11.9936 16.0808 12.9477 15.7585C12.9602 15.7542 12.9715 15.7468 12.9805 15.737C12.9894 15.7271 12.9956 15.7152 12.9987 15.7022C13.0017 15.6893 13.0013 15.6758 12.9977 15.663C12.994 15.6502 12.9871 15.6386 12.9777 15.6292L12.1348 14.7862C12.1154 14.7673 12.0914 14.7538 12.0651 14.7469C12.0389 14.7401 12.0113 14.7402 11.9852 14.7472C11.3323 14.9153 10.6609 15.0002 9.98672 14.9999ZM19.1734 9.32023C18.1398 7.72179 16.7988 6.36398 15.2957 5.39328C13.6328 4.31828 11.7969 3.74992 9.98672 3.74992C8.99038 3.75168 8.00144 3.92111 7.06133 4.25109C7.0488 4.25545 7.03759 4.26292 7.02876 4.27281C7.01992 4.2827 7.01374 4.29467 7.01081 4.30761C7.00788 4.32054 7.00829 4.33401 7.012 4.34674C7.01572 4.35948 7.02261 4.37105 7.03203 4.38038L7.87383 5.22218C7.89343 5.24145 7.91776 5.2552 7.94437 5.26206C7.97098 5.26892 7.99892 5.26864 8.02539 5.26124C8.66483 5.08827 9.3243 5.0004 9.98672 4.99992C11.5762 4.99992 13.1344 5.48546 14.6176 6.44523C15.9734 7.32023 17.1855 8.54992 18.1238 9.99992C18.1245 10.0008 18.1249 10.0019 18.1249 10.003C18.1249 10.0042 18.1245 10.0053 18.1238 10.0062C17.4427 11.0784 16.5976 12.0371 15.6191 12.8472C15.6108 12.8541 15.6039 12.8627 15.599 12.8724C15.5942 12.8821 15.5914 12.8927 15.5908 12.9035C15.5902 12.9143 15.592 12.9252 15.5958 12.9353C15.5997 12.9455 15.6056 12.9547 15.6133 12.9624L16.3906 13.7394C16.4044 13.7533 16.4228 13.7615 16.4424 13.7624C16.4619 13.7634 16.4811 13.7569 16.4961 13.7444C17.5406 12.865 18.4448 11.8312 19.1773 10.6788C19.3068 10.4758 19.3753 10.2398 19.3746 9.99895C19.3739 9.75812 19.3041 9.52255 19.1734 9.32023Z" fill="#EE7D46"/>
<path d="M10 6.25C9.71911 6.24985 9.43909 6.2813 9.16523 6.34375C9.1514 6.34662 9.1386 6.35319 9.12821 6.36276C9.11781 6.37233 9.11021 6.38453 9.1062 6.39808C9.10219 6.41163 9.10193 6.42601 9.10545 6.43969C9.10896 6.45337 9.11613 6.46585 9.12617 6.47578L13.5242 10.8727C13.5342 10.8827 13.5466 10.8899 13.5603 10.8934C13.574 10.8969 13.5884 10.8966 13.6019 10.8926C13.6155 10.8886 13.6277 10.881 13.6372 10.8706C13.6468 10.8602 13.6534 10.8474 13.6562 10.8336C13.7815 10.2844 13.7813 9.71403 13.6559 9.16488C13.5305 8.61573 13.2829 8.1019 12.9316 7.66154C12.5804 7.22118 12.1344 6.86562 11.6269 6.62125C11.1194 6.37688 10.5633 6.24999 10 6.25ZM6.47578 9.12734C6.46584 9.1173 6.45337 9.11014 6.43969 9.10662C6.426 9.10311 6.41162 9.10337 6.39808 9.10738C6.38453 9.11138 6.37232 9.11899 6.36276 9.12938C6.35319 9.13978 6.34662 9.15257 6.34375 9.16641C6.20208 9.78529 6.21987 10.43 6.39544 11.0401C6.57102 11.6503 6.89862 12.2058 7.34756 12.6548C7.79649 13.1037 8.35206 13.4313 8.96219 13.6069C9.57233 13.7825 10.217 13.8003 10.8359 13.6586C10.8498 13.6557 10.8626 13.6492 10.873 13.6396C10.8834 13.63 10.891 13.6178 10.895 13.6043C10.899 13.5907 10.8992 13.5763 10.8957 13.5627C10.8922 13.549 10.885 13.5365 10.875 13.5266L6.47578 9.12734Z" fill="#EE7D46"/>
</svg>
