<svg width="30" height="30" viewBox="0 0 30 30" fill="none" xmlns="http://www.w3.org/2000/svg">
<path d="M15.5356 30C11.4153 30 7.46378 28.3632 4.55028 25.4497C1.63678 22.5362 0 18.5847 0 14.4644C0 8.16976 3.61605 2.52605 9.2149 0.0892287C9.41223 0.00323021 9.63088 -0.0213405 9.84237 0.0187186C10.0539 0.0587777 10.2484 0.161609 10.4006 0.313813C10.5528 0.466017 10.6556 0.660537 10.6957 0.872026C10.7357 1.08351 10.7112 1.30217 10.6252 1.49949C9.98231 2.97537 9.6428 4.86577 9.6428 6.96441C9.6428 14.3492 15.6508 20.3572 23.0356 20.3572C25.1342 20.3572 27.0246 20.0177 28.5005 19.3748C28.6978 19.2888 28.9165 19.2643 29.128 19.3043C29.3395 19.3444 29.534 19.4472 29.6862 19.5994C29.8384 19.7516 29.9412 19.9461 29.9813 20.1576C30.0213 20.3691 29.9968 20.5878 29.9108 20.7851C27.474 26.384 21.8302 30 15.5356 30Z" fill="#5470D2"/>
</svg>
