<svg width="26" height="26" viewBox="0 0 26 26" fill="none" xmlns="http://www.w3.org/2000/svg">
<path d="M13.4642 26C9.89328 26 6.46861 24.5815 3.94358 22.0564C1.41855 19.5314 0 16.1067 0 12.5358C0 7.08046 3.13391 2.18924 7.98625 0.0773315C8.15726 0.00279951 8.34676 -0.0184951 8.53005 0.0162228C8.71334 0.0509407 8.88193 0.140061 9.01384 0.271971C9.14575 0.403882 9.23487 0.572465 9.26958 0.755755C9.3043 0.939046 9.28301 1.12854 9.20848 1.29956C8.65134 2.57866 8.3571 4.217 8.3571 6.03583C8.3571 12.436 13.564 17.6429 19.9642 17.6429C21.783 17.6429 23.4213 17.3487 24.7004 16.7915C24.8715 16.717 25.061 16.6957 25.2442 16.7304C25.4275 16.7651 25.5961 16.8543 25.728 16.9862C25.8599 17.1181 25.9491 17.2867 25.9838 17.4699C26.0185 17.6532 25.9972 17.8427 25.9227 18.0138C23.8108 22.8661 18.9195 26 13.4642 26Z" fill="#5470D2"/>
</svg>
