<svg width="27" height="24" viewBox="0 0 27 24" fill="none" xmlns="http://www.w3.org/2000/svg">
<path d="M13.5234 4.68C13.1936 4.68 12.8774 4.56209 12.6442 4.35221C12.411 4.14234 12.28 3.85768 12.28 3.56087V1.11913C12.28 0.822319 12.411 0.537663 12.6442 0.327786C12.8774 0.117908 13.1936 0 13.5234 0C13.8532 0 14.1695 0.117908 14.4027 0.327786C14.6359 0.537663 14.7669 0.822319 14.7669 1.11913V3.56087C14.7669 3.85768 14.6359 4.14234 14.4027 4.35221C14.1695 4.56209 13.8532 4.68 13.5234 4.68ZM13.5234 23.4C13.1936 23.4 12.8774 23.2821 12.6442 23.0722C12.411 22.8623 12.28 22.5777 12.28 22.2809V19.8391C12.28 19.5423 12.411 19.2577 12.6442 19.0478C12.8774 18.8379 13.1936 18.72 13.5234 18.72C13.8532 18.72 14.1695 18.8379 14.4027 19.0478C14.6359 19.2577 14.7669 19.5423 14.7669 19.8391V22.2809C14.7669 22.5777 14.6359 22.8623 14.4027 23.0722C14.1695 23.2821 13.8532 23.4 13.5234 23.4ZM19.9183 7.06375C19.6724 7.06372 19.4321 6.99809 19.2276 6.87515C19.0232 6.7522 18.8638 6.57747 18.7697 6.37304C18.6756 6.1686 18.6509 5.94364 18.6988 5.72659C18.7467 5.50954 18.865 5.31014 19.0388 5.1536L20.9572 3.42708C21.1914 3.22177 21.506 3.10774 21.833 3.10967C22.1599 3.11161 22.4729 3.22936 22.7041 3.43744C22.9353 3.64551 23.0661 3.92716 23.0682 4.22141C23.0704 4.51566 22.9437 4.79884 22.7156 5.00963L20.7972 6.73615C20.6819 6.84015 20.5449 6.92264 20.3941 6.97885C20.2432 7.03507 20.0816 7.06392 19.9183 7.06375ZM5.21022 20.301C4.96427 20.301 4.72386 20.2353 4.51938 20.1123C4.3149 19.9893 4.15554 19.8145 4.06146 19.61C3.96738 19.4055 3.94281 19.1804 3.99084 18.9633C4.03887 18.7462 4.15735 18.5468 4.33131 18.3904L6.24965 16.6639C6.36455 16.5577 6.50174 16.4731 6.65325 16.415C6.80476 16.357 6.96757 16.3266 7.13224 16.3256C7.29691 16.3246 7.46016 16.3531 7.6125 16.4094C7.76485 16.4656 7.90326 16.5486 8.0197 16.6534C8.13614 16.7582 8.2283 16.8827 8.29082 17.0198C8.35333 17.157 8.38497 17.3039 8.38388 17.4521C8.3828 17.6003 8.34902 17.7468 8.2845 17.8832C8.21998 18.0195 8.12601 18.143 8.00805 18.2464L6.0897 19.9729C5.97435 20.0771 5.83727 20.1597 5.68634 20.216C5.53541 20.2723 5.3736 20.3012 5.21022 20.301ZM25.28 12.8191H22.5669C22.2371 12.8191 21.9208 12.7012 21.6876 12.4913C21.4544 12.2815 21.3234 11.9968 21.3234 11.7C21.3234 11.4032 21.4544 11.1185 21.6876 10.9087C21.9208 10.6988 22.2371 10.5809 22.5669 10.5809H25.28C25.6098 10.5809 25.926 10.6988 26.1592 10.9087C26.3924 11.1185 26.5234 11.4032 26.5234 11.7C26.5234 11.9968 26.3924 12.2815 26.1592 12.4913C25.926 12.7012 25.6098 12.8191 25.28 12.8191ZM4.47996 12.8191H1.76692C1.43712 12.8191 1.12084 12.7012 0.887644 12.4913C0.654446 12.2815 0.523438 11.9968 0.523438 11.7C0.523438 11.4032 0.654446 11.1185 0.887644 10.9087C1.12084 10.6988 1.43712 10.5809 1.76692 10.5809H4.47996C4.80975 10.5809 5.12603 10.6988 5.35923 10.9087C5.59243 11.1185 5.72344 11.4032 5.72344 11.7C5.72344 11.9968 5.59243 12.2815 5.35923 12.4913C5.12603 12.7012 4.80975 12.8191 4.47996 12.8191ZM21.8367 20.301C21.6733 20.3012 21.5115 20.2723 21.3605 20.216C21.2096 20.1597 21.0725 20.0771 20.9572 19.9729L19.0388 18.2464C18.8107 18.0356 18.684 17.7524 18.6862 17.4582C18.6883 17.1639 18.8191 16.8823 19.0503 16.6742C19.2815 16.4661 19.5945 16.3484 19.9214 16.3464C20.2484 16.3445 20.563 16.4585 20.7972 16.6639L22.7156 18.3904C22.8895 18.5468 23.008 18.7462 23.056 18.9633C23.1041 19.1804 23.0795 19.4055 22.9854 19.61C22.8913 19.8145 22.732 19.9893 22.5275 20.1123C22.323 20.2353 22.0826 20.301 21.8367 20.301ZM7.12857 7.06375C6.9653 7.06404 6.80358 7.03524 6.65273 6.97901C6.50188 6.92279 6.36489 6.84024 6.24965 6.73615L4.33131 5.00963C4.10318 4.79884 3.97648 4.51566 3.97863 4.22141C3.98078 3.92716 4.11162 3.64551 4.34281 3.43744C4.574 3.22936 4.88695 3.11161 5.21389 3.10967C5.54084 3.10774 5.85548 3.22177 6.0897 3.42708L8.00805 5.1536C8.18184 5.31014 8.30017 5.50954 8.34807 5.72659C8.39597 5.94364 8.3713 6.1686 8.27717 6.37304C8.18305 6.57747 8.02369 6.7522 7.81924 6.87515C7.6148 6.99809 7.37445 7.06372 7.12857 7.06375ZM13.5234 16.8887C12.3832 16.8887 11.2685 16.5844 10.3205 16.0142C9.37237 15.4441 8.63343 14.6337 8.19707 13.6856C7.76072 12.7375 7.64654 11.6942 7.869 10.6877C8.09145 9.68123 8.64053 8.75669 9.44681 8.03104C10.2531 7.30539 11.2804 6.81121 12.3987 6.611C13.517 6.4108 14.6762 6.51355 15.7297 6.90627C16.7831 7.29899 17.6836 7.96404 18.317 8.81732C18.9505 9.67059 19.2887 10.6738 19.2887 11.7C19.2869 13.0756 18.6789 14.3945 17.5981 15.3672C16.5173 16.3399 15.0519 16.8871 13.5234 16.8887Z" fill="#F57053"/>
</svg>
