<svg width="27" height="26" viewBox="0 0 27 26" fill="none" xmlns="http://www.w3.org/2000/svg">
<path d="M13.5234 5.2C13.1936 5.2 12.8774 5.06899 12.6442 4.83579C12.411 4.6026 12.28 4.28631 12.28 3.95652V1.24348C12.28 0.913687 12.411 0.597404 12.6442 0.364206C12.8774 0.131009 13.1936 0 13.5234 0C13.8532 0 14.1695 0.131009 14.4027 0.364206C14.6359 0.597404 14.7669 0.913687 14.7669 1.24348V3.95652C14.7669 4.28631 14.6359 4.6026 14.4027 4.83579C14.1695 5.06899 13.8532 5.2 13.5234 5.2ZM13.5234 26C13.1936 26 12.8774 25.869 12.6442 25.6358C12.411 25.4026 12.28 25.0863 12.28 24.7565V22.0435C12.28 21.7137 12.411 21.3974 12.6442 21.1642C12.8774 20.931 13.1936 20.8 13.5234 20.8C13.8532 20.8 14.1695 20.931 14.4027 21.1642C14.6359 21.3974 14.7669 21.7137 14.7669 22.0435V24.7565C14.7669 25.0863 14.6359 25.4026 14.4027 25.6358C14.1695 25.869 13.8532 26 13.5234 26ZM19.9183 7.84861C19.6724 7.84858 19.4321 7.77565 19.2276 7.63905C19.0232 7.50245 18.8638 7.3083 18.7697 7.08115C18.6756 6.854 18.6509 6.60405 18.6988 6.36288C18.7467 6.12171 18.865 5.90015 19.0388 5.72622L20.9572 3.80787C21.1914 3.57974 21.506 3.45304 21.833 3.45519C22.1599 3.45735 22.4729 3.58818 22.7041 3.81937C22.9353 4.05057 23.0661 4.36351 23.0682 4.69046C23.0704 5.0174 22.9437 5.33204 22.7156 5.56626L20.7972 7.48461C20.6819 7.60017 20.5449 7.69182 20.3941 7.75428C20.2432 7.81675 20.0816 7.8488 19.9183 7.84861V7.84861ZM5.21022 22.5567C4.96427 22.5567 4.72386 22.4837 4.51938 22.347C4.3149 22.2104 4.15554 22.0161 4.06146 21.7889C3.96738 21.5616 3.94281 21.3116 3.99084 21.0704C4.03887 20.8292 4.15735 20.6076 4.33131 20.4337L6.24965 18.5154C6.36455 18.3974 6.50174 18.3035 6.65325 18.2389C6.80476 18.1744 6.96757 18.1406 7.13224 18.1396C7.29691 18.1385 7.46016 18.1701 7.6125 18.2326C7.76485 18.2951 7.90326 18.3873 8.0197 18.5037C8.13614 18.6202 8.2283 18.7586 8.29082 18.9109C8.35333 19.0633 8.38497 19.2265 8.38388 19.3912C8.3828 19.5559 8.34902 19.7187 8.2845 19.8702C8.21998 20.0217 8.12601 20.1589 8.00805 20.2738L6.0897 22.1921C5.97435 22.3078 5.83727 22.3996 5.68634 22.4622C5.53541 22.5247 5.3736 22.5569 5.21022 22.5567V22.5567ZM25.28 14.2435H22.5669C22.2371 14.2435 21.9208 14.1125 21.6876 13.8793C21.4544 13.6461 21.3234 13.3298 21.3234 13C21.3234 12.6702 21.4544 12.3539 21.6876 12.1207C21.9208 11.8875 22.2371 11.7565 22.5669 11.7565H25.28C25.6098 11.7565 25.926 11.8875 26.1592 12.1207C26.3924 12.3539 26.5234 12.6702 26.5234 13C26.5234 13.3298 26.3924 13.6461 26.1592 13.8793C25.926 14.1125 25.6098 14.2435 25.28 14.2435ZM4.47996 14.2435H1.76692C1.43712 14.2435 1.12084 14.1125 0.887644 13.8793C0.654446 13.6461 0.523438 13.3298 0.523438 13C0.523438 12.6702 0.654446 12.3539 0.887644 12.1207C1.12084 11.8875 1.43712 11.7565 1.76692 11.7565H4.47996C4.80975 11.7565 5.12603 11.8875 5.35923 12.1207C5.59243 12.3539 5.72344 12.6702 5.72344 13C5.72344 13.3298 5.59243 13.6461 5.35923 13.8793C5.12603 14.1125 4.80975 14.2435 4.47996 14.2435ZM21.8367 22.5567C21.6733 22.5569 21.5115 22.5247 21.3605 22.4622C21.2096 22.3996 21.0725 22.3078 20.9572 22.1921L19.0388 20.2738C18.8107 20.0396 18.684 19.7249 18.6862 19.398C18.6883 19.071 18.8191 18.7581 19.0503 18.5269C19.2815 18.2957 19.5945 18.1649 19.9214 18.1627C20.2484 18.1606 20.563 18.2873 20.7972 18.5154L22.7156 20.4337C22.8895 20.6076 23.008 20.8292 23.056 21.0704C23.1041 21.3116 23.0795 21.5616 22.9854 21.7889C22.8913 22.0161 22.732 22.2104 22.5275 22.347C22.323 22.4837 22.0826 22.5567 21.8367 22.5567V22.5567ZM7.12857 7.84861C6.9653 7.84893 6.80358 7.81693 6.65273 7.75446C6.50188 7.69198 6.36489 7.60027 6.24965 7.48461L4.33131 5.56626C4.10318 5.33204 3.97648 5.0174 3.97863 4.69046C3.98078 4.36351 4.11162 4.05057 4.34281 3.81937C4.574 3.58818 4.88695 3.45735 5.21389 3.45519C5.54084 3.45304 5.85548 3.57974 6.0897 3.80787L8.00805 5.72622C8.18184 5.90015 8.30017 6.12171 8.34807 6.36288C8.39597 6.60405 8.3713 6.854 8.27717 7.08115C8.18305 7.3083 8.02369 7.50245 7.81924 7.63905C7.6148 7.77565 7.37445 7.84858 7.12857 7.84861V7.84861ZM13.5234 18.7652C12.3832 18.7652 11.2685 18.4271 10.3205 17.7936C9.37237 17.1601 8.63343 16.2597 8.19707 15.2063C7.76072 14.1528 7.64654 12.9936 7.869 11.8753C8.09145 10.7569 8.64053 9.72966 9.44681 8.92338C10.2531 8.1171 11.2804 7.56801 12.3987 7.34556C13.517 7.12311 14.6762 7.23728 15.7297 7.67363C16.7831 8.10999 17.6836 8.84893 18.317 9.79702C18.9505 10.7451 19.2887 11.8597 19.2887 13C19.2869 14.5285 18.6789 15.9938 17.5981 17.0746C16.5173 18.1554 15.0519 18.7634 13.5234 18.7652V18.7652Z" fill="#F57053"/>
</svg>
