<svg width="30" height="30" viewBox="0 0 30 30" fill="none" xmlns="http://www.w3.org/2000/svg">
<path d="M15 6C14.6195 6 14.2545 5.84884 13.9855 5.57976C13.7164 5.31069 13.5652 4.94575 13.5652 4.56522V1.43478C13.5652 1.05425 13.7164 0.689312 13.9855 0.420238C14.2545 0.151164 14.6195 0 15 0C15.3805 0 15.7455 0.151164 16.0145 0.420238C16.2836 0.689312 16.4348 1.05425 16.4348 1.43478V4.56522C16.4348 4.94575 16.2836 5.31069 16.0145 5.57976C15.7455 5.84884 15.3805 6 15 6ZM15 30C14.6195 30 14.2545 29.8488 13.9855 29.5798C13.7164 29.3107 13.5652 28.9457 13.5652 28.5652V25.4348C13.5652 25.0543 13.7164 24.6893 13.9855 24.4202C14.2545 24.1512 14.6195 24 15 24C15.3805 24 15.7455 24.1512 16.0145 24.4202C16.2836 24.6893 16.4348 25.0543 16.4348 25.4348V28.5652C16.4348 28.9457 16.2836 29.3107 16.0145 29.5798C15.7455 29.8488 15.3805 30 15 30ZM22.3787 9.05609C22.095 9.05605 21.8177 8.97191 21.5818 8.81429C21.3459 8.65667 21.162 8.43266 21.0534 8.17056C20.9448 7.90846 20.9163 7.62005 20.9716 7.34178C21.0269 7.06351 21.1634 6.80787 21.3639 6.60717L23.5774 4.3937C23.8476 4.13047 24.2107 3.98428 24.5879 3.98676C24.9652 3.98925 25.3263 4.14021 25.593 4.40697C25.8598 4.67373 26.0108 5.03482 26.0132 5.41207C26.0157 5.78931 25.8695 6.15236 25.6063 6.42261L23.3928 8.63609C23.2598 8.76943 23.1017 8.87517 22.9277 8.94725C22.7536 9.01933 22.5671 9.05631 22.3787 9.05609ZM5.40783 26.027C5.12404 26.0269 4.84664 25.9427 4.6107 25.785C4.37476 25.6273 4.19089 25.4032 4.08234 25.141C3.97378 24.8788 3.94542 24.5903 4.00085 24.312C4.05627 24.0336 4.19298 23.778 4.3937 23.5774L6.60717 21.3639C6.73975 21.2278 6.89804 21.1194 7.07286 21.0449C7.24768 20.9705 7.43554 20.9315 7.62554 20.9303C7.81555 20.929 8.00391 20.9655 8.17969 21.0376C8.35548 21.1098 8.51518 21.2161 8.64954 21.3505C8.78389 21.4848 8.89022 21.6445 8.96236 21.8203C9.03449 21.9961 9.07099 22.1845 9.06974 22.3745C9.06849 22.5645 9.02951 22.7523 8.95507 22.9271C8.88063 23.102 8.7722 23.2603 8.63609 23.3928L6.42261 25.6063C6.28951 25.7398 6.13134 25.8457 5.95719 25.9179C5.78304 25.9901 5.59634 26.0271 5.40783 26.027ZM28.5652 16.4348H25.4348C25.0543 16.4348 24.6893 16.2836 24.4202 16.0145C24.1512 15.7455 24 15.3805 24 15C24 14.6195 24.1512 14.2545 24.4202 13.9855C24.6893 13.7164 25.0543 13.5652 25.4348 13.5652H28.5652C28.9457 13.5652 29.3107 13.7164 29.5798 13.9855C29.8488 14.2545 30 14.6195 30 15C30 15.3805 29.8488 15.7455 29.5798 16.0145C29.3107 16.2836 28.9457 16.4348 28.5652 16.4348ZM4.56522 16.4348H1.43478C1.05425 16.4348 0.689312 16.2836 0.420238 16.0145C0.151164 15.7455 0 15.3805 0 15C0 14.6195 0.151164 14.2545 0.420238 13.9855C0.689312 13.7164 1.05425 13.5652 1.43478 13.5652H4.56522C4.94575 13.5652 5.31069 13.7164 5.57976 13.9855C5.84884 14.2545 6 14.6195 6 15C6 15.3805 5.84884 15.7455 5.57976 16.0145C5.31069 16.2836 4.94575 16.4348 4.56522 16.4348ZM24.5922 26.027C24.4037 26.0271 24.217 25.9901 24.0428 25.9179C23.8687 25.8457 23.7105 25.7398 23.5774 25.6063L21.3639 23.3928C21.1007 23.1226 20.9545 22.7595 20.957 22.3823C20.9595 22.005 21.1104 21.6439 21.3772 21.3772C21.6439 21.1104 22.005 20.9595 22.3823 20.957C22.7595 20.9545 23.1226 21.1007 23.3928 21.3639L25.6063 23.5774C25.807 23.778 25.9437 24.0336 25.9992 24.312C26.0546 24.5903 26.0262 24.8788 25.9177 25.141C25.8091 25.4032 25.6252 25.6273 25.3893 25.785C25.1534 25.9427 24.876 26.0269 24.5922 26.027ZM7.6213 9.05609C7.43291 9.05646 7.24631 9.01953 7.07226 8.94745C6.89821 8.87537 6.74014 8.76954 6.60717 8.63609L4.3937 6.42261C4.13047 6.15236 3.98428 5.78931 3.98676 5.41207C3.98925 5.03482 4.14021 4.67373 4.40697 4.40697C4.67373 4.14021 5.03482 3.98925 5.41207 3.98676C5.78931 3.98428 6.15236 4.13047 6.42261 4.3937L8.63609 6.60717C8.83662 6.80787 8.97315 7.06351 9.02842 7.34178C9.08369 7.62005 9.05522 7.90846 8.94662 8.17056C8.83801 8.43266 8.65414 8.65667 8.41824 8.81429C8.18234 8.97191 7.90501 9.05605 7.6213 9.05609ZM15 21.6522C13.6843 21.6522 12.3982 21.262 11.3042 20.5311C10.2103 19.8001 9.35768 18.7612 8.85419 17.5457C8.35071 16.3302 8.21897 14.9926 8.47565 13.7022C8.73232 12.4118 9.36588 11.2265 10.2962 10.2962C11.2265 9.36588 12.4118 8.73232 13.7022 8.47565C14.9926 8.21897 16.3302 8.35071 17.5457 8.85419C18.7612 9.35768 19.8001 10.2103 20.5311 11.3042C21.262 12.3982 21.6522 13.6843 21.6522 15C21.6501 16.7636 20.9486 18.4544 19.7015 19.7015C18.4544 20.9486 16.7636 21.6501 15 21.6522Z" fill="#F57053"/>
</svg>
